<svg id="Layer_1" data-name="Layer 1" xmlns="http://www.w3.org/2000/svg" viewBox="0 0 500 500" width="500" height="500" class="illustration"><defs><style>.cls-1{fill:#f9bb0d;}.cls-2{fill:#ffd44d;}.cls-3{fill:#24285b;}.cls-4{fill:#fff;}.cls-5{fill:#f0457d;}.cls-6{fill:#db2868;}</style></defs><title>Internet security</title><rect class="cls-1" x="63.16" y="116" width="318.48" height="200.4" rx="16.91"></rect><rect class="cls-2" x="63.16" y="116" width="288.63" height="176.36" rx="16.91"></rect><rect class="cls-3" x="63.16" y="167.38" width="318.48" height="36.8"></rect><rect class="cls-4" x="230.69" y="243" width="97.86" height="9.44" rx="4.3"></rect><rect class="cls-4" x="116.25" y="243" width="97.86" height="9.44" rx="4.3"></rect><path class="cls-5" d="M429.84,283.75c-36.55-12.2-62.61-35.95-62.61-35.95s-26.06,23.75-62.61,35.95c0,0-2.19,77.13,62.61,101.25C432,360.88,429.84,283.75,429.84,283.75Z"></path><path class="cls-3" d="M370,284.64h-5.58a14.08,14.08,0,0,0-14.07,14.07v11.15a2.93,2.93,0,1,0,5.85,0V298.71a8.23,8.23,0,0,1,8.22-8.22H370a8.23,8.23,0,0,1,8.22,8.22v11.17h5.85V298.71A14.08,14.08,0,0,0,370,284.64Z"></path><rect class="cls-1" x="343.31" y="308.71" width="47.85" height="39.45" rx="3"></rect><rect class="cls-2" x="343.31" y="308.71" width="42.2" height="35.13" rx="3"></rect><path class="cls-3" d="M372.75,325a5.7,5.7,0,1,0-8.88,4.73v3.41a3.36,3.36,0,1,0,6.72,0v-3.68A5.69,5.69,0,0,0,372.75,325Z"></path><path class="cls-6" d="M429.84,283.75c-36.55-12.2-62.61-35.95-62.61-35.95s-3.18,2.9-8.88,7.19c10.61,8,29.94,20.82,53.72,28.76,0,0,2,69.89-53.72,97.42a94.51,94.51,0,0,0,8.88,3.83C432,360.88,429.84,283.75,429.84,283.75Z"></path></svg>