<svg id="Layer_1" xmlns="http://www.w3.org/2000/svg" viewBox="0 0 500 500" width="500" height="500" class="illustration"><defs><style>.cls-1{fill:#fff;}.cls-2{fill:#f0457d;}.cls-3{fill:#f9bb0d;}.cls-4{fill:#c3c7c9;opacity:.26;}.cls-5{fill:#0086f4;}.cls-6{fill:#24285b;}.cls-7{fill:#ffd44d;}.cls-8{fill:#0099f5;}.cls-9{fill:#f2f2f2;}</style></defs><g><g><path class="cls-9" d="M458.87,145.14V404.21c0,7.88-6.39,14.26-14.26,14.26H55.4c-7.88,0-14.26-6.39-14.26-14.26V145.14H458.87Z"></path><path class="cls-4" d="M41.13,145.14v33.09H436.9v240.24h7.7c7.88,0,14.26-6.39,14.26-14.26V145.14H41.13Z"></path><path class="cls-6" d="M458.87,95.79v63.09H41.13v-63.09c0-7.88,6.39-14.26,14.26-14.26H444.6c7.88,0,14.26,6.39,14.26,14.26Z"></path><g><circle class="cls-1" cx="132.24" cy="117.57" r="6.94"></circle><circle class="cls-1" cx="100.62" cy="117.57" r="6.94"></circle><circle class="cls-1" cx="69.01" cy="117.57" r="6.94"></circle></g></g><g><rect class="cls-5" x="139.01" y="237.59" width="214.98" height="75.69" rx="7.48" ry="7.48"></rect><rect class="cls-8" x="139.01" y="237.59" width="191.91" height="68.22" rx="3.72" ry="3.72"></rect><g><g><path class="cls-1" d="M190,297.35c-2.17,0-3.94-1.76-3.94-3.94v-39.43c0-2.17,1.76-3.94,3.94-3.94s3.94,1.76,3.94,3.94v39.43c0,2.17-1.76,3.94-3.94,3.94Z"></path><path class="cls-1" d="M176.06,288.41c-1.18,0-2.34-.53-3.12-1.53-1.33-1.72-1.01-4.19,.71-5.52l27.88-21.56c1.72-1.33,4.19-1.01,5.52,.71,1.33,1.72,1.01,4.19-.71,5.52l-27.88,21.56c-.72,.55-1.56,.82-2.41,.82Z"></path><path class="cls-1" d="M203.94,288.41c-.84,0-1.69-.27-2.41-.82l-27.88-21.56c-1.72-1.33-2.04-3.8-.71-5.52,1.33-1.72,3.8-2.04,5.52-.71l27.88,21.56c1.72,1.33,2.04,3.8,.71,5.52-.78,1-1.94,1.53-3.12,1.53Z"></path></g><g><path class="cls-1" d="M246.5,297.35c-2.17,0-3.94-1.76-3.94-3.94v-39.43c0-2.17,1.76-3.94,3.94-3.94s3.94,1.76,3.94,3.94v39.43c0,2.17-1.76,3.94-3.94,3.94Z"></path><path class="cls-1" d="M232.56,288.41c-1.18,0-2.34-.53-3.12-1.53-1.33-1.72-1.01-4.19,.71-5.52l27.88-21.56c1.72-1.33,4.19-1.01,5.52,.71,1.33,1.72,1.01,4.19-.71,5.52l-27.88,21.56c-.72,.55-1.56,.82-2.41,.82Z"></path><path class="cls-1" d="M260.44,288.41c-.84,0-1.69-.27-2.41-.82l-27.88-21.56c-1.72-1.33-2.04-3.8-.71-5.52,1.33-1.72,3.8-2.04,5.52-.71l27.88,21.56c1.72,1.33,2.04,3.8,.71,5.52-.78,1-1.94,1.53-3.12,1.53Z"></path></g><g><path class="cls-1" d="M303,297.35c-2.17,0-3.94-1.76-3.94-3.94v-39.43c0-2.17,1.76-3.94,3.94-3.94s3.94,1.76,3.94,3.94v39.43c0,2.17-1.76,3.94-3.94,3.94Z"></path><path class="cls-1" d="M289.06,288.41c-1.18,0-2.34-.53-3.12-1.53-1.33-1.72-1.01-4.19,.71-5.52l27.88-21.56c1.72-1.33,4.19-1.01,5.52,.71,1.33,1.72,1.01,4.19-.71,5.52l-27.88,21.56c-.72,.55-1.56,.82-2.41,.82Z"></path><path class="cls-1" d="M316.94,288.41c-.84,0-1.69-.27-2.41-.82l-27.88-21.56c-1.72-1.33-2.04-3.8-.71-5.52,1.33-1.72,3.8-2.04,5.52-.71l27.88,21.56c1.72,1.33,2.04,3.8,.71,5.52-.78,1-1.94,1.53-3.12,1.53Z"></path></g></g></g><rect class="cls-2" x="212.84" y="346.84" width="67.31" height="23.09" rx="11.55" ry="11.55"></rect></g><g><path class="cls-8" d="M470.77,342.94c-34.58-11.54-59.22-34.01-59.22-34.01,0,0-24.65,22.47-59.22,34.01,0,0-2.08,72.96,59.22,95.78,61.3-22.82,59.22-95.78,59.22-95.78Z"></path><g><path class="cls-6" d="M414.18,343.78h-5.27c-7.34,0-13.31,5.97-13.31,13.31v10.55c0,1.53,1.24,2.77,2.77,2.77s2.77-1.24,2.77-2.77v-10.55c0-4.29,3.49-7.78,7.78-7.78h5.27c4.29,0,7.78,3.49,7.78,7.78v10.57h5.54v-10.57c0-7.34-5.97-13.31-13.31-13.31Z"></path><g><rect class="cls-3" x="388.91" y="366.55" width="45.26" height="37.32" rx="3" ry="3"></rect><rect class="cls-7" x="388.91" y="366.55" width="39.92" height="33.24" rx="3" ry="3"></rect></g><path class="cls-6" d="M416.76,381.99c0-2.98-2.41-5.39-5.39-5.39s-5.39,2.41-5.39,5.39c0,1.86,.95,3.5,2.38,4.47v3.23c0,1.75,1.42,3.18,3.18,3.18s3.18-1.42,3.18-3.18v-3.48c1.24-.99,2.04-2.51,2.04-4.22Z"></path></g><path class="cls-5" d="M470.77,342.94c-34.58-11.54-59.22-34.01-59.22-34.01,0,0-3.01,2.75-8.4,6.81,10.04,7.56,28.33,19.69,50.82,27.2,0,0,1.88,66.12-50.82,92.16,2.66,1.31,5.46,2.53,8.4,3.63,61.3-22.82,59.22-95.78,59.22-95.78Z"></path></g></svg>